<svg width="29" height="44" viewBox="0 0 29 44" fill="none" xmlns="http://www.w3.org/2000/svg">
<circle cx="21.5" cy="22.1533" r="7" stroke="#FDF5D9"/>
<mask id="path-2-inside-1_214_10879" fill="white">
<path d="M14.7334 29H7.01562V28.9902C3.11017 28.8069 4.71757e-05 25.5836 0 21.6328C0 17.682 3.11012 14.4578 7.01562 14.2744V14.2656H14.7334V29Z"/>
</mask>
<path d="M14.7334 29V30H15.7334V29H14.7334ZM7.01562 29H6.01562V30H7.01562V29ZM7.01562 28.9902H8.01562V28.0361L7.06252 27.9913L7.01562 28.9902ZM0 21.6328H-1V21.6328L0 21.6328ZM7.01562 14.2744L7.06252 15.2733L8.01562 15.2286V14.2744H7.01562ZM7.01562 14.2656V13.2656H6.01562V14.2656H7.01562ZM14.7334 14.2656H15.7334V13.2656H14.7334V14.2656ZM14.7334 29V28H7.01562V29V30H14.7334V29ZM7.01562 29H8.01562V28.9902H7.01562H6.01562V29H7.01562ZM7.01562 28.9902L7.06252 27.9913C3.68779 27.8329 1.00004 25.0468 1 21.6328L0 21.6328L-1 21.6328C-0.999946 26.1204 2.53255 29.7809 6.96873 29.9891L7.01562 28.9902ZM0 21.6328H1C1 18.2186 3.68791 15.4317 7.06252 15.2733L7.01562 14.2744L6.96873 13.2755C2.53234 13.4838 -1 17.1453 -1 21.6328H0ZM7.01562 14.2744H8.01562V14.2656H7.01562H6.01562V14.2744H7.01562ZM7.01562 14.2656V15.2656H14.7334V14.2656V13.2656H7.01562V14.2656ZM14.7334 14.2656H13.7334V29H14.7334H15.7334V14.2656H14.7334Z" fill="#FDF5D9" mask="url(#path-2-inside-1_214_10879)"/>
<mask id="path-4-inside-2_214_10879" fill="white">
<path d="M14.7334 14.7334H7.01562V14.7236C3.1103 14.5403 0.000238023 11.3178 0 7.36719C0 3.41633 3.11013 0.192134 7.01562 0.00878906V0H14.7334V14.7334Z"/>
</mask>
<path d="M14.7334 14.7334V15.7334H15.7334V14.7334H14.7334ZM7.01562 14.7334H6.01562V15.7334H7.01562V14.7334ZM7.01562 14.7236H8.01562V13.7695L7.06253 13.7247L7.01562 14.7236ZM0 7.36719H-1V7.36725L0 7.36719ZM7.01562 0.00878906L7.06252 1.00769L8.01562 0.962945V0.00878906H7.01562ZM7.01562 0V-1H6.01562V0H7.01562ZM14.7334 0H15.7334V-1H14.7334V0ZM14.7334 14.7334V13.7334H7.01562V14.7334V15.7334H14.7334V14.7334ZM7.01562 14.7334H8.01562V14.7236H7.01562H6.01562V14.7334H7.01562ZM7.01562 14.7236L7.06253 13.7247C3.6878 13.5663 1.00021 10.7809 1 7.36713L0 7.36719L-1 7.36725C-0.99973 11.8547 2.53281 15.5143 6.96872 15.7225L7.01562 14.7236ZM0 7.36719H1C1 3.95296 3.68791 1.16611 7.06252 1.00769L7.01562 0.00878906L6.96873 -0.990111C2.53235 -0.781843 -1 2.87971 -1 7.36719H0ZM7.01562 0.00878906H8.01562V0H7.01562H6.01562V0.00878906H7.01562ZM7.01562 0V1H14.7334V0V-1H7.01562V0ZM14.7334 0H13.7334V14.7334H14.7334H15.7334V0H14.7334Z" fill="#FDF5D9" mask="url(#path-4-inside-2_214_10879)"/>
<mask id="path-6-inside-3_214_10879" fill="white">
<path d="M14.2656 14.7334H21.9834V14.7236C25.8891 14.5406 28.9998 11.3181 29 7.36719C29 3.41609 25.8892 0.191764 21.9834 0.00878906V0H14.2656V14.7334Z"/>
</mask>
<path d="M14.2656 14.7334V15.7334H13.2656V14.7334H14.2656ZM21.9834 14.7334H22.9834V15.7334H21.9834V14.7334ZM21.9834 14.7236H20.9834V13.7694L21.9366 13.7247L21.9834 14.7236ZM29 7.36719H30V7.36725L29 7.36719ZM21.9834 0.00878906L21.9366 1.00769L20.9834 0.963039V0.00878906H21.9834ZM21.9834 0V-1H22.9834V0H21.9834ZM14.2656 0H13.2656V-1H14.2656V0ZM14.2656 14.7334V13.7334H21.9834V14.7334V15.7334H14.2656V14.7334ZM21.9834 14.7334H20.9834V14.7236H21.9834H22.9834V14.7334H21.9834ZM21.9834 14.7236L21.9366 13.7247C25.3117 13.5666 27.9998 10.7811 28 7.36713L29 7.36719L30 7.36725C29.9997 11.8551 26.4665 15.5147 22.0302 15.7225L21.9834 14.7236ZM29 7.36719H28C28 3.9528 25.3116 1.1658 21.9366 1.00769L21.9834 0.00878906L22.0302 -0.990115C26.4669 -0.78227 30 2.87938 30 7.36719H29ZM21.9834 0.00878906H20.9834V0H21.9834H22.9834V0.00878906H21.9834ZM21.9834 0V1H14.2656V0V-1H21.9834V0ZM14.2656 0H15.2656V14.7334H14.2656H13.2656V0H14.2656Z" fill="#FDF5D9" mask="url(#path-6-inside-3_214_10879)"/>
<mask id="path-8-inside-4_214_10879" fill="white">
<path d="M7.36719 28.5322C7.81976 28.5322 8.26236 28.5752 8.69238 28.6533H14.7334V35.6533H14.7275C14.7302 35.7347 14.7334 35.8164 14.7334 35.8984C14.7334 39.9669 11.4357 43.2655 7.36719 43.2656C3.29857 43.2656 0 39.9671 0 35.8984C0.000144608 32.3914 2.45112 29.458 5.7334 28.7148V28.6533H6.04102C6.47125 28.5751 6.91439 28.5322 7.36719 28.5322Z"/>
</mask>
<path d="M7.36719 28.5322L7.36723 27.5322H7.36719V28.5322ZM8.69238 28.6533L8.51356 29.6372L8.60224 29.6533H8.69238V28.6533ZM14.7334 28.6533H15.7334V27.6533H14.7334V28.6533ZM14.7334 35.6533V36.6533H15.7334V35.6533H14.7334ZM14.7275 35.6533V34.6533H13.6943L13.7281 35.686L14.7275 35.6533ZM14.7334 35.8984H15.7334V35.8984L14.7334 35.8984ZM7.36719 43.2656V44.2656H7.36723L7.36719 43.2656ZM0 35.8984L-1 35.8984V35.8984H0ZM5.7334 28.7148L5.95423 29.6902L6.7334 29.5137V28.7148H5.7334ZM5.7334 28.6533V27.6533H4.7334V28.6533H5.7334ZM6.04102 28.6533V29.6533H6.13118L6.21989 29.6372L6.04102 28.6533ZM7.36719 28.5322L7.36715 29.5322C7.75634 29.5322 8.13905 29.5691 8.51356 29.6372L8.69238 28.6533L8.87121 27.6694C8.38566 27.5812 7.88318 27.5322 7.36723 27.5322L7.36719 28.5322ZM8.69238 28.6533V29.6533H14.7334V28.6533V27.6533H8.69238V28.6533ZM14.7334 28.6533H13.7334V35.6533H14.7334H15.7334V28.6533H14.7334ZM14.7334 35.6533V34.6533H14.7275V35.6533V36.6533H14.7334V35.6533ZM14.7275 35.6533L13.7281 35.686C13.731 35.7768 13.7334 35.8372 13.7334 35.8985L14.7334 35.8984L15.7334 35.8984C15.7334 35.7956 15.7294 35.6926 15.727 35.6206L14.7275 35.6533ZM14.7334 35.8984H13.7334C13.7334 39.4148 10.8832 42.2655 7.36715 42.2656L7.36719 43.2656L7.36723 44.2656C11.9881 44.2654 15.7334 40.5191 15.7334 35.8984H14.7334ZM7.36719 43.2656V42.2656C3.85086 42.2656 1 39.4148 1 35.8984H0H-1C-1 40.5193 2.74629 44.2656 7.36719 44.2656V43.2656ZM0 35.8984L1 35.8985C1.00012 32.869 3.11741 30.3325 5.95423 29.6902L5.7334 28.7148L5.51257 27.7395C1.78483 28.5836 -0.999836 31.9138 -1 35.8984L0 35.8984ZM5.7334 28.7148H6.7334V28.6533H5.7334H4.7334V28.7148H5.7334ZM5.7334 28.6533V29.6533H6.04102V28.6533V27.6533H5.7334V28.6533ZM6.04102 28.6533L6.21989 29.6372C6.59443 29.5691 6.97766 29.5322 7.36719 29.5322V28.5322V27.5322C6.85111 27.5322 6.34807 27.5811 5.86214 27.6694L6.04102 28.6533Z" fill="#FDF5D9" mask="url(#path-8-inside-4_214_10879)"/>
</svg>
